<svg width="195" height="65" viewBox="0 0 195 65" fill="none" xmlns="http://www.w3.org/2000/svg">
<rect y="-3.05176e-05" width="195" height="65" rx="30" fill="#094556"/>
<path d="M31.3125 32.0078C31.3281 30.6797 31.3125 29.3672 31.2656 28.0703C31.2344 26.7578 31.0625 25.4531 30.75 24.1562C30.6719 23.8593 30.7109 23.6172 30.8672 23.4297C31.0234 23.2265 31.2109 23.0937 31.4297 23.0312C31.6641 22.9687 31.8906 22.9843 32.1094 23.0781C32.3281 23.1718 32.4766 23.3672 32.5547 23.664C32.8828 24.9922 33.0625 26.3359 33.0938 27.6953C33.125 29.039 33.1328 30.3984 33.1172 31.7734C33.6016 31.8203 34.0859 31.875 34.5703 31.9375C35.0547 31.9843 35.5391 32.0234 36.0234 32.0547C36.5078 32.0703 36.9844 32.0703 37.4531 32.0547C37.9375 32.0234 38.4141 31.9453 38.8828 31.8203C39.0078 31.7734 39.1406 31.7656 39.2812 31.7968C39.3281 31.0937 39.3906 30.4062 39.4688 29.7343C39.5469 29.0468 39.5938 28.3515 39.6094 27.6484C39.6406 26.8984 39.625 26.1562 39.5625 25.4218C39.5 24.6875 39.4297 23.9453 39.3516 23.1953C39.3203 22.9453 39.4062 22.7265 39.6094 22.539C39.8125 22.3515 40.0391 22.2578 40.2891 22.2578C40.5547 22.2578 40.7656 22.3515 40.9219 22.539C41.0781 22.7265 41.1719 22.9453 41.2031 23.1953C41.2812 23.9453 41.3516 24.6875 41.4141 25.4218C41.4922 26.1562 41.5156 26.8984 41.4844 27.6484C41.4531 28.3984 41.3906 29.1328 41.2969 29.8515C41.2188 30.5547 41.1641 31.2812 41.1328 32.0312C41.0547 33.25 41 34.4765 40.9688 35.7109C40.9375 36.9297 40.9609 38.1484 41.0391 39.3672C41.0547 39.6797 40.9688 39.9062 40.7812 40.0468C40.5938 40.2031 40.3828 40.2812 40.1484 40.2812C39.9141 40.2812 39.6953 40.2031 39.4922 40.0468C39.2891 39.9062 39.1797 39.6797 39.1641 39.3672C39.1016 38.4297 39.0703 37.4843 39.0703 36.5312C39.0859 35.5781 39.1172 34.625 39.1641 33.6718C38.6641 33.7968 38.1641 33.875 37.6641 33.9062C37.1641 33.9218 36.6641 33.9218 36.1641 33.9062C35.6641 33.875 35.1562 33.8359 34.6406 33.789C34.1406 33.7265 33.6406 33.6718 33.1406 33.625C33.1562 34.5 33.1953 35.3672 33.2578 36.2265C33.3359 37.0859 33.4844 37.9453 33.7031 38.8047C33.7812 39.1015 33.7422 39.3515 33.5859 39.5547C33.4453 39.7422 33.2578 39.8672 33.0234 39.9297C32.8047 39.9922 32.5781 39.9765 32.3438 39.8828C32.125 39.789 31.9844 39.5937 31.9219 39.2968C31.6562 38.2968 31.4922 37.2968 31.4297 36.2968C31.3672 35.2812 31.3281 34.2578 31.3125 33.2265C31.1875 33.0547 31.125 32.8515 31.125 32.6172C31.125 32.3828 31.1875 32.1797 31.3125 32.0078ZM44.4609 30.9062C44.7578 30.5 45.1094 30.1406 45.5156 29.8281C45.9375 29.5156 46.3828 29.2734 46.8516 29.1015C47.3203 28.914 47.8047 28.8203 48.3047 28.8203C48.8047 28.8047 49.3047 28.8984 49.8047 29.1015C50.2891 29.289 50.7266 29.5468 51.1172 29.875C51.5078 30.1875 51.8125 30.5937 52.0312 31.0937C52.2031 31.4687 52.3047 31.875 52.3359 32.3125C52.3672 32.75 52.25 33.1484 51.9844 33.5078C51.75 33.8359 51.4609 34.0859 51.1172 34.2578C50.7891 34.4297 50.4297 34.5547 50.0391 34.6328C49.6641 34.7109 49.2734 34.75 48.8672 34.75C48.4766 34.75 48.1016 34.7422 47.7422 34.7265C47.3359 34.7109 46.9297 34.6797 46.5234 34.6328C46.1328 34.5859 45.7344 34.539 45.3281 34.4922C45.4531 35.1953 45.7031 35.8203 46.0781 36.3672C46.4531 36.914 46.9609 37.3281 47.6016 37.6093C47.7734 37.6718 47.9062 37.7187 48 37.75C48.0469 37.7656 48.0859 37.7812 48.1172 37.7968C48.1641 37.7968 48.2109 37.7968 48.2578 37.7968C48.3828 37.8125 48.4844 37.8281 48.5625 37.8437C48.6562 37.8437 48.7422 37.8359 48.8203 37.8203C48.9297 37.8047 49 37.7968 49.0312 37.7968C49.0781 37.7812 49.125 37.7656 49.1719 37.75C49.3438 37.7031 49.4922 37.6484 49.6172 37.5859C49.7578 37.5234 49.9219 37.4218 50.1094 37.2812C50.2031 37.2031 50.3281 37.0859 50.4844 36.9297C50.6406 36.7734 50.7734 36.6328 50.8828 36.5078C51.0391 36.289 51.2266 36.1406 51.4453 36.0625C51.6797 35.9843 51.9141 36.0156 52.1484 36.1562C52.3516 36.2812 52.4922 36.4765 52.5703 36.7422C52.6641 36.9922 52.6328 37.2265 52.4766 37.4453C52.0234 38.0547 51.4844 38.5781 50.8594 39.0156C50.25 39.4375 49.5469 39.664 48.75 39.6953C48.1094 39.7265 47.4922 39.6172 46.8984 39.3672C46.3047 39.1015 45.7812 38.75 45.3281 38.3125C44.7656 37.7656 44.3203 37.1328 43.9922 36.414C43.6641 35.6953 43.4844 34.9609 43.4531 34.2109C43.3125 34.1015 43.2031 33.9687 43.125 33.8125C43.0625 33.6406 43.0391 33.4687 43.0547 33.2968C43.0859 33.125 43.1484 32.9687 43.2422 32.8281C43.3359 32.6718 43.4766 32.5703 43.6641 32.5234C43.8359 31.9453 44.1016 31.4062 44.4609 30.9062ZM50.0859 31.4687C49.9141 31.25 49.6484 31.0547 49.2891 30.8828C48.9922 30.7578 48.6406 30.6953 48.2344 30.6953C47.8438 30.6953 47.5078 30.7656 47.2266 30.9062C46.8672 31.0781 46.5469 31.3203 46.2656 31.6328C45.9844 31.9297 45.7578 32.2656 45.5859 32.6406C45.9609 32.6875 46.3359 32.7343 46.7109 32.7812C47.0859 32.8281 47.4609 32.8593 47.8359 32.875C48.0391 32.875 48.2422 32.875 48.4453 32.875C48.6484 32.875 48.8516 32.8672 49.0547 32.8515C49.1172 32.8515 49.1719 32.8515 49.2188 32.8515C49.2812 32.8359 49.3438 32.8281 49.4062 32.8281C49.5469 32.7968 49.6484 32.7812 49.7109 32.7812C49.7891 32.7656 49.8672 32.7422 49.9453 32.7109C50.0078 32.6953 50.0859 32.6718 50.1797 32.6406C50.2578 32.6093 50.3047 32.5859 50.3203 32.5703C50.3359 32.5547 50.3594 32.539 50.3906 32.5234L50.4609 32.2422C50.4297 32.1797 50.4062 32.125 50.3906 32.0781C50.3906 32.0156 50.375 31.9609 50.3438 31.914C50.3281 31.8672 50.2891 31.7968 50.2266 31.7031C50.1797 31.6093 50.1328 31.5312 50.0859 31.4687ZM63.1641 29.4531C63.3828 29.5781 63.5312 29.7656 63.6094 30.0156C63.6875 30.2656 63.6484 30.5 63.4922 30.7187C63.1016 31.2812 62.8047 31.8984 62.6016 32.5703C62.4141 33.2422 62.1953 33.8984 61.9453 34.539C61.6797 35.2265 61.3828 35.8906 61.0547 36.5312C60.7422 37.1718 60.4062 37.8203 60.0469 38.4765C60.0156 38.5547 59.9766 38.625 59.9297 38.6875C59.8984 38.7343 59.8672 38.7968 59.8359 38.875C59.8984 39.125 59.8594 39.3515 59.7188 39.5547C59.5938 39.7422 59.4219 39.875 59.2031 39.9531C58.5625 41.0468 57.9141 42.125 57.2578 43.1875C56.6172 44.2656 55.9766 45.3515 55.3359 46.4453C55.1797 46.7109 54.9766 46.8593 54.7266 46.8906C54.4922 46.9218 54.2734 46.875 54.0703 46.75C53.8672 46.6406 53.7188 46.4687 53.625 46.2343C53.5312 46.0156 53.5625 45.7734 53.7188 45.5078C54.375 44.3828 55.0391 43.2656 55.7109 42.1562C56.3828 41.0625 57.0469 39.9531 57.7031 38.8281C57 37.5625 56.3281 36.289 55.6875 35.0078C55.0469 33.7109 54.3906 32.4218 53.7188 31.1406C53.5781 30.875 53.5547 30.6328 53.6484 30.414C53.7578 30.1797 53.9062 30.0078 54.0938 29.8984C54.2969 29.7734 54.5156 29.7265 54.75 29.7578C55 29.789 55.1953 29.9375 55.3359 30.2031C55.9141 31.3281 56.4844 32.4531 57.0469 33.5781C57.6094 34.6875 58.1875 35.7968 58.7812 36.9062C59.3594 35.8437 59.875 34.7265 60.3281 33.5547C60.5625 32.914 60.7812 32.2656 60.9844 31.6093C61.2031 30.9375 61.5078 30.3281 61.8984 29.7812C62.0391 29.5625 62.2266 29.4218 62.4609 29.3593C62.6953 29.2812 62.9297 29.3125 63.1641 29.4531ZM63.6797 38.4765C63.7578 38.1797 63.9062 37.9843 64.125 37.8906C64.3594 37.7968 64.5859 37.7812 64.8047 37.8437C65.0391 37.9062 65.2266 38.039 65.3672 38.2422C65.5234 38.4453 65.5625 38.6875 65.4844 38.9687C65.2656 39.8437 64.9375 40.6406 64.5 41.3593C64.0625 42.0937 63.4062 42.6328 62.5312 42.9765C62.2969 43.0703 62.0703 43.039 61.8516 42.8828C61.6172 42.7422 61.4609 42.5547 61.3828 42.3203C61.3047 42.0547 61.3359 41.8203 61.4766 41.6172C61.6172 41.4297 61.8047 41.2812 62.0391 41.1718C62.3047 41.0625 62.5234 40.9062 62.6953 40.7031C62.8828 40.5 63.0391 40.2734 63.1641 40.0234C63.2891 39.789 63.3906 39.539 63.4688 39.2734C63.5469 38.9922 63.6172 38.7265 63.6797 38.4765ZM73.8516 40C73.5703 39.9218 73.3828 39.7656 73.2891 39.5312C73.1953 39.2968 73.1797 39.0703 73.2422 38.8515C73.3047 38.6328 73.4297 38.4531 73.6172 38.3125C73.8203 38.1562 74.0625 38.1172 74.3438 38.1953C74.9688 38.3828 75.5938 38.5 76.2188 38.5468C76.8438 38.5937 77.4844 38.6015 78.1406 38.5703C77.875 37.4609 77.7422 36.3515 77.7422 35.2422C77.7422 34.1172 77.7812 33 77.8594 31.8906C77.9531 30.7656 78.0391 29.6406 78.1172 28.5156C78.2109 27.3906 78.2188 26.2656 78.1406 25.1406C77.5469 25.125 76.9453 25.1015 76.3359 25.0703C75.7422 25.0234 75.1484 24.9609 74.5547 24.8828C74.2891 24.8515 74.0625 24.7578 73.875 24.6015C73.7031 24.4453 73.6172 24.2343 73.6172 23.9687C73.6172 23.7343 73.7031 23.5156 73.875 23.3125C74.0625 23.0937 74.2891 23 74.5547 23.0312C75.2734 23.1093 75.9922 23.1797 76.7109 23.2422C77.4453 23.289 78.1719 23.3047 78.8906 23.289C79.6094 23.2734 80.3203 23.2109 81.0234 23.1015C81.7422 22.9922 82.4531 22.8125 83.1562 22.5625C83.3906 22.4843 83.6172 22.5156 83.8359 22.6562C84.0703 22.7968 84.2266 22.9843 84.3047 23.2187C84.3828 23.4843 84.3516 23.7265 84.2109 23.9453C84.0859 24.1484 83.8984 24.289 83.6484 24.3672C82.4766 24.7734 81.2578 25.0156 79.9922 25.0937C80.0859 26.2031 80.0859 27.3203 79.9922 28.4453C79.8984 29.5703 79.8047 30.6875 79.7109 31.7968C79.6172 32.9062 79.5703 34.0156 79.5703 35.125C79.5859 36.2343 79.7344 37.3359 80.0156 38.4297C80.5156 38.3828 81.0078 38.3359 81.4922 38.289C81.9766 38.2422 82.4609 38.2031 82.9453 38.1718C83.2422 38.1562 83.4609 38.2422 83.6016 38.4297C83.7578 38.6015 83.8359 38.8047 83.8359 39.039C83.8359 39.2734 83.7578 39.4922 83.6016 39.6953C83.4609 39.8984 83.2422 40.0078 82.9453 40.0234C82.1797 40.0703 81.4141 40.1328 80.6484 40.2109C79.8984 40.3047 79.1406 40.3672 78.375 40.3984C77.625 40.4453 76.8672 40.4453 76.1016 40.3984C75.3516 40.3515 74.6016 40.2187 73.8516 40ZM86.5078 22.6328C86.7266 22.5547 86.9609 22.5781 87.2109 22.7031C87.4609 22.8281 87.6094 23.0234 87.6562 23.289C87.7344 23.7109 87.75 24.1484 87.7031 24.6015C87.6719 25.039 87.5859 25.4687 87.4453 25.8906C87.3203 26.2968 87.1562 26.6953 86.9531 27.0859C86.7656 27.4765 86.5078 27.8047 86.1797 28.0703C85.9766 28.2422 85.75 28.3359 85.5 28.3515C85.2656 28.3672 85.0469 28.2734 84.8438 28.0703C84.6719 27.8984 84.5781 27.6797 84.5625 27.414C84.5469 27.1484 84.6406 26.9297 84.8438 26.7578C85.0625 26.5859 85.2344 26.3828 85.3594 26.1484C85.4844 25.914 85.5859 25.6562 85.6641 25.375C85.6953 25.2343 85.7266 25.0937 85.7578 24.9531C85.8047 24.8125 85.8359 24.664 85.8516 24.5078C85.8516 24.4297 85.8516 24.3515 85.8516 24.2734C85.8672 24.1953 85.875 24.1172 85.875 24.039L85.8516 23.7812C85.8047 23.5156 85.8359 23.2812 85.9453 23.0781C86.0547 22.8593 86.2422 22.7109 86.5078 22.6328ZM91.5234 40.3047C91.3047 40.3828 91.0625 40.3593 90.7969 40.2343C90.5469 40.1093 90.4062 39.9218 90.375 39.6718C90.1562 38.2968 90.0156 36.9375 89.9531 35.5937C89.9062 34.2343 89.8828 32.8672 89.8828 31.4922C89.8828 31.2578 89.9453 31.0703 90.0703 30.9297C90.1953 30.789 90.3438 30.6953 90.5156 30.6484C90.6875 30.6015 90.8672 30.5937 91.0547 30.625C91.2422 30.6562 91.3984 30.7343 91.5234 30.8593C91.8828 30.5625 92.2656 30.3047 92.6719 30.0859C93.0781 29.8672 93.4844 29.7265 93.8906 29.664C94.3125 29.5859 94.7266 29.6093 95.1328 29.7343C95.5391 29.8437 95.9219 30.0859 96.2812 30.4609C96.5781 30.7734 96.8359 31.1093 97.0547 31.4687C97.2734 31.8125 97.4688 32.1797 97.6406 32.5703C97.875 31.9765 98.2031 31.4297 98.625 30.9297C99.0469 30.4297 99.5859 30.0937 100.242 29.9218C100.727 29.7968 101.109 29.8281 101.391 30.0156C101.672 30.1875 101.938 30.4609 102.188 30.8359C102.453 31.2265 102.695 31.625 102.914 32.0312C103.148 32.4375 103.367 32.8515 103.57 33.2734C103.773 33.6953 103.969 34.1172 104.156 34.539C104.344 34.9609 104.531 35.375 104.719 35.7812C104.938 36.2343 105.125 36.6875 105.281 37.1406C105.453 37.5781 105.562 38.0468 105.609 38.5468C105.641 38.8125 105.547 39.039 105.328 39.2265C105.125 39.3984 104.906 39.4843 104.672 39.4843C104.406 39.4843 104.188 39.3984 104.016 39.2265C103.859 39.039 103.766 38.8125 103.734 38.5468C103.703 38.1718 103.602 37.8125 103.43 37.4687C103.273 37.1093 103.117 36.7578 102.961 36.414C102.789 36.0547 102.617 35.6875 102.445 35.3125C102.289 34.9375 102.125 34.5703 101.953 34.2109C101.781 33.8515 101.594 33.4922 101.391 33.1328C101.203 32.7734 101 32.4218 100.781 32.0781C100.75 32.0312 100.719 31.9843 100.688 31.9375C100.656 31.8906 100.625 31.8437 100.594 31.7968C100.281 31.9687 100.055 32.1328 99.9141 32.289C99.7734 32.4453 99.6406 32.6562 99.5156 32.9218C99.4062 33.1562 99.3125 33.4062 99.2344 33.6718C99.1719 33.9218 99.1172 34.1797 99.0703 34.4453C98.9766 34.9453 98.9062 35.4687 98.8594 36.0156C98.8281 36.4218 98.8281 36.8125 98.8594 37.1875C98.9062 37.5625 98.8906 37.9531 98.8125 38.3593C98.7656 38.6093 98.6172 38.7968 98.3672 38.9218C98.1328 39.0468 97.8984 39.0781 97.6641 39.0156C97.4453 38.9531 97.2812 38.8437 97.1719 38.6875C97.0781 38.5156 97.0156 38.3203 96.9844 38.1015C96.9219 37.6015 96.8516 37.0859 96.7734 36.5547C96.6953 36.0234 96.5938 35.5 96.4688 34.9843C96.3438 34.4531 96.1797 33.9453 95.9766 33.4609C95.7891 32.9609 95.5391 32.5 95.2266 32.0781C95.0078 31.7968 94.7812 31.6093 94.5469 31.5156C94.3281 31.4218 94.0547 31.4609 93.7266 31.6328C93.3672 31.8203 93.0156 32.0468 92.6719 32.3125C92.3281 32.5781 92.0234 32.875 91.7578 33.2031C91.7734 34.2031 91.8047 35.2031 91.8516 36.2031C91.9141 37.1875 92.0234 38.1718 92.1797 39.1562C92.2109 39.4218 92.1719 39.664 92.0625 39.8828C91.9688 40.0859 91.7891 40.2265 91.5234 40.3047ZM116.719 39.5312C116.719 39.8281 116.617 40.0468 116.414 40.1875C116.227 40.3437 116.016 40.4218 115.781 40.4218C115.547 40.4218 115.328 40.3437 115.125 40.1875C114.938 40.0468 114.844 39.8281 114.844 39.5312C114.844 37.0312 114.875 34.5468 114.938 32.0781C115 29.5937 115.148 27.1093 115.383 24.625C115.414 24.3593 115.508 24.1484 115.664 23.9922C115.836 23.8359 116.016 23.75 116.203 23.7343C116.406 23.7031 116.602 23.7422 116.789 23.8515C116.992 23.9453 117.141 24.1172 117.234 24.3672C117.547 25.2578 117.836 26.1562 118.102 27.0625C118.367 27.9531 118.625 28.8515 118.875 29.7578C119.141 30.664 119.406 31.5703 119.672 32.4765C119.953 33.3672 120.258 34.25 120.586 35.125C121.398 33.0781 122.133 31.0234 122.789 28.9609C123.461 26.8984 124 24.7812 124.406 22.6093C124.453 22.375 124.562 22.2031 124.734 22.0937C124.906 21.9843 125.094 21.9297 125.297 21.9297C125.516 21.9297 125.711 21.9843 125.883 22.0937C126.055 22.2031 126.164 22.375 126.211 22.6093C126.336 23.3125 126.375 24.0078 126.328 24.6953C126.297 25.3672 126.281 26.0547 126.281 26.7578C126.281 27.5078 126.32 28.2422 126.398 28.9609C126.492 29.6797 126.57 30.4062 126.633 31.1406C126.758 32.6093 126.852 34.0781 126.914 35.5468C126.977 37.0156 127.031 38.4843 127.078 39.9531C127.078 40.2656 126.984 40.4922 126.797 40.6328C126.609 40.789 126.398 40.8672 126.164 40.8672C125.93 40.8672 125.711 40.789 125.508 40.6328C125.305 40.4922 125.203 40.2656 125.203 39.9531C125.172 38.4843 125.117 37.0156 125.039 35.5468C124.977 34.0781 124.883 32.6093 124.758 31.1406C124.727 30.875 124.695 30.6015 124.664 30.3203C124.648 30.039 124.625 29.7656 124.594 29.5C124.141 30.9218 123.648 32.3203 123.117 33.6953C122.602 35.0703 122.062 36.4453 121.5 37.8203C121.422 38.0078 121.305 38.1718 121.148 38.3125C121.008 38.4375 120.828 38.5 120.609 38.5C120.453 38.5 120.297 38.4609 120.141 38.3828C119.984 38.289 119.867 38.1718 119.789 38.0312C119.164 36.6562 118.633 35.2578 118.195 33.8359C117.758 32.414 117.328 30.9765 116.906 29.5234C116.828 31.1953 116.773 32.8672 116.742 34.539C116.727 36.1953 116.719 37.8593 116.719 39.5312ZM139.711 31.7265C139.727 33.0703 139.82 34.414 139.992 35.7578C140.164 37.1015 140.391 38.4297 140.672 39.7422C140.734 40.039 140.68 40.2812 140.508 40.4687C140.352 40.6718 140.164 40.8047 139.945 40.8672C139.727 40.9297 139.508 40.914 139.289 40.8203C139.07 40.7265 138.93 40.5312 138.867 40.2343C138.68 39.3437 138.516 38.4687 138.375 37.6093C138.312 37.6875 138.258 37.7656 138.211 37.8437C138.164 37.9062 138.109 37.9765 138.047 38.0547C137.734 38.4297 137.375 38.7578 136.969 39.039C136.562 39.3047 136.125 39.5156 135.656 39.6718C135.203 39.8125 134.734 39.8906 134.25 39.9062C133.766 39.9218 133.289 39.8672 132.82 39.7422C131.992 39.5078 131.359 39.1015 130.922 38.5234C130.484 37.9453 130.172 37.289 129.984 36.5547C129.797 35.8047 129.688 35.0312 129.656 34.2343C129.625 33.4218 129.602 32.6718 129.586 31.9843C129.586 31.6875 129.68 31.4687 129.867 31.3281C130.055 31.1718 130.266 31.0937 130.5 31.0937C130.734 31.0937 130.945 31.1718 131.133 31.3281C131.336 31.4687 131.445 31.6875 131.461 31.9843C131.477 32.6093 131.484 33.2422 131.484 33.8828C131.5 34.5234 131.57 35.125 131.695 35.6875C131.758 36 131.828 36.2734 131.906 36.5078C131.984 36.7265 132.109 36.9609 132.281 37.2109C132.359 37.3203 132.398 37.3828 132.398 37.3984C132.414 37.414 132.438 37.4297 132.469 37.4453C132.703 37.6328 132.859 37.75 132.938 37.7968C133.016 37.8281 133.109 37.8593 133.219 37.8906C133.875 38.0781 134.539 38.0625 135.211 37.8437C135.883 37.6093 136.422 37.1953 136.828 36.6015C137.062 36.2265 137.234 35.8359 137.344 35.4297C137.469 35.0234 137.555 34.6172 137.602 34.2109C137.648 33.789 137.68 33.3672 137.695 32.9453C137.727 32.5078 137.773 32.0781 137.836 31.6562C137.836 31.1875 137.953 30.8828 138.188 30.7422C138.438 30.5859 138.695 30.5312 138.961 30.5781C139.117 30.625 139.242 30.6797 139.336 30.7422L139.523 30.9062C139.695 31.1875 139.758 31.4609 139.711 31.7265ZM143.344 34.7968C142.938 34.5 142.648 34.1328 142.477 33.6953C142.305 33.2422 142.297 32.7656 142.453 32.2656C142.609 31.8125 142.852 31.4062 143.18 31.0468C143.508 30.6875 143.883 30.3984 144.305 30.1797C144.773 29.9297 145.273 29.7343 145.805 29.5937C146.336 29.4531 146.875 29.375 147.422 29.3593C147.969 29.3437 148.508 29.3984 149.039 29.5234C149.586 29.6328 150.102 29.8125 150.586 30.0625C150.852 30.2031 151 30.3906 151.031 30.625C151.062 30.8593 151.016 31.0781 150.891 31.2812C150.781 31.4843 150.609 31.6328 150.375 31.7265C150.141 31.8203 149.891 31.7968 149.625 31.6562C149.25 31.4531 148.828 31.3203 148.359 31.2578C147.891 31.1953 147.414 31.1953 146.93 31.2578C146.461 31.3047 146.016 31.4218 145.594 31.6093C145.172 31.7968 144.82 32.039 144.539 32.3359C144.461 32.414 144.406 32.4687 144.375 32.5C144.359 32.5312 144.328 32.6015 144.281 32.7109L144.234 32.9687C144.281 33.1093 144.32 33.1953 144.352 33.2265C144.664 33.4297 144.984 33.5625 145.312 33.625C145.656 33.6718 146 33.7031 146.344 33.7187C146.828 33.75 147.32 33.7812 147.82 33.8125C148.336 33.8281 148.828 33.8906 149.297 34C149.781 34.1093 150.227 34.289 150.633 34.539C151.039 34.789 151.383 35.1562 151.664 35.6406C151.977 36.1875 152.117 36.7578 152.086 37.3515C152.07 37.9297 151.844 38.4531 151.406 38.9218C150.969 39.3906 150.461 39.7187 149.883 39.9062C149.305 40.0781 148.719 40.2031 148.125 40.2812C147.594 40.3437 147.039 40.3593 146.461 40.3281C145.898 40.2968 145.352 40.2031 144.82 40.0468C144.305 39.9062 143.82 39.6875 143.367 39.3906C142.914 39.0781 142.539 38.6718 142.242 38.1718C142.102 37.9218 142.078 37.6875 142.172 37.4687C142.266 37.2343 142.406 37.0625 142.594 36.9531C142.797 36.8281 143.016 36.7812 143.25 36.8125C143.5 36.8437 143.703 36.9843 143.859 37.2343C144.078 37.5937 144.383 37.8672 144.773 38.0547C145.164 38.2422 145.586 38.375 146.039 38.4531C146.508 38.5156 146.977 38.5312 147.445 38.5C147.914 38.4531 148.336 38.3906 148.711 38.3125C148.914 38.2656 149.117 38.2031 149.32 38.125C149.539 38.0312 149.719 37.9218 149.859 37.7968C150.016 37.6718 150.125 37.5312 150.188 37.375C150.25 37.2031 150.242 37.0156 150.164 36.8125C150.008 36.4218 149.742 36.1406 149.367 35.9687C149.008 35.7968 148.625 35.6953 148.219 35.664C147.812 35.6328 147.398 35.6172 146.977 35.6172C146.555 35.6172 146.133 35.6015 145.711 35.5703C145.289 35.5234 144.875 35.4453 144.469 35.3359C144.062 35.2265 143.688 35.0468 143.344 34.7968ZM155.555 39.3672C155.023 39.1328 154.602 38.8125 154.289 38.4062C153.992 37.9843 153.781 37.5234 153.656 37.0234C153.547 36.5234 153.516 36.0078 153.562 35.4765C153.609 34.9297 153.719 34.4062 153.891 33.9062C154.031 33.5156 154.188 33.1093 154.359 32.6875C154.547 32.2656 154.766 31.875 155.016 31.5156C155.266 31.1562 155.562 30.8515 155.906 30.6015C156.25 30.3359 156.656 30.164 157.125 30.0859C157.609 30.0078 158.094 29.9843 158.578 30.0156C159.078 30.0312 159.57 30.0781 160.055 30.1562C160.273 30.1875 160.484 30.2422 160.688 30.3203C160.891 30.3828 161.094 30.4531 161.297 30.5312C161.312 30.2968 161.414 30.1015 161.602 29.9453C161.805 29.789 162.016 29.7109 162.234 29.7109C162.5 29.7109 162.711 29.8047 162.867 29.9922C163.039 30.164 163.141 30.375 163.172 30.625C163.25 31.3437 163.281 32.0625 163.266 32.7812C163.266 33.5 163.242 34.2187 163.195 34.9375C163.164 35.6562 163.133 36.375 163.102 37.0937C163.086 37.8125 163.094 38.5312 163.125 39.25C163.141 39.5468 163.047 39.7734 162.844 39.9297C162.656 40.0703 162.445 40.1406 162.211 40.1406C161.977 40.1406 161.758 40.0703 161.555 39.9297C161.367 39.7734 161.266 39.5468 161.25 39.25C160.359 39.625 159.414 39.8437 158.414 39.9062C157.414 39.9531 156.461 39.7734 155.555 39.3672ZM155.719 34.2812C155.625 34.5625 155.539 34.8828 155.461 35.2422C155.383 35.6015 155.359 35.9453 155.391 36.2734C155.422 36.6015 155.523 36.9062 155.695 37.1875C155.867 37.4531 156.148 37.6406 156.539 37.75C157.336 38 158.133 38.0703 158.93 37.9609C159.742 37.8515 160.5 37.5703 161.203 37.1172C161.266 36.3515 161.312 35.6093 161.344 34.8906C161.391 34.1718 161.406 33.4453 161.391 32.7109C161.125 32.539 160.852 32.3906 160.57 32.2656C160.305 32.125 160.008 32.0312 159.68 31.9843C159.352 31.9375 159 31.9062 158.625 31.8906C158.266 31.8593 157.914 31.8593 157.57 31.8906C157.539 31.8906 157.453 31.914 157.312 31.9609C157.188 31.9922 157.117 32.0156 157.102 32.0312C156.945 32.1093 156.805 32.2343 156.68 32.4062C156.477 32.6875 156.297 32.9922 156.141 33.3203C155.984 33.6328 155.844 33.9531 155.719 34.2812Z" fill="white"/>
</svg>
