<svg width="77" height="20" viewBox="0 0 77 20" fill="none" xmlns="http://www.w3.org/2000/svg">
<path d="M6.60156 11.5781C6.22656 11.1875 5.82812 10.8281 5.40625 10.5C4.98438 10.1562 4.5625 9.82031 4.14062 9.49219C3.73438 9.14844 3.33594 8.79688 2.94531 8.4375C2.55469 8.0625 2.19531 7.65625 1.86719 7.21875C1.52344 6.76562 1.25 6.27344 1.04688 5.74219C0.859375 5.19531 0.828125 4.63281 0.953125 4.05469C1.07812 3.42969 1.38281 2.88281 1.86719 2.41406C2.35156 1.94531 2.875 1.57813 3.4375 1.3125C4.04688 1.04687 4.66406 0.867188 5.28906 0.773438C5.91406 0.664063 6.54688 0.601562 7.1875 0.585938C7.82812 0.554687 8.46875 0.554687 9.10938 0.585938C9.76562 0.601562 10.4141 0.59375 11.0547 0.5625C11.3516 0.546875 11.5703 0.632812 11.7109 0.820312C11.8672 1.00781 11.9453 1.21875 11.9453 1.45312C11.9453 1.6875 11.8672 1.90625 11.7109 2.10938C11.5703 2.29688 11.3516 2.39844 11.0547 2.41406C10.6016 2.44531 10.1484 2.46094 9.69531 2.46094C9.25781 2.44531 8.8125 2.42969 8.35938 2.41406C7.75 2.39844 7.13281 2.40625 6.50781 2.4375C5.89844 2.46875 5.29688 2.59375 4.70312 2.8125C4.5 2.89063 4.28125 2.99219 4.04688 3.11719C3.8125 3.22656 3.59375 3.36719 3.39062 3.53906C3.20312 3.71094 3.04688 3.89844 2.92188 4.10156C2.79688 4.30469 2.74219 4.52344 2.75781 4.75781C2.77344 4.97656 2.82812 5.19531 2.92188 5.41406C3.01562 5.61719 3.13281 5.82031 3.27344 6.02344C3.42969 6.22656 3.59375 6.42188 3.76562 6.60938C3.9375 6.79688 4.10156 6.96875 4.25781 7.125C4.61719 7.48438 4.99219 7.8125 5.38281 8.10938C5.77344 8.40625 6.16406 8.71094 6.55469 9.02344C6.96094 9.35156 7.36719 9.71875 7.77344 10.125C8.19531 10.5156 8.55469 10.9453 8.85156 11.4141C9.16406 11.8672 9.39062 12.3516 9.53125 12.8672C9.6875 13.3828 9.71094 13.9297 9.60156 14.5078C9.49219 15.0547 9.28125 15.5234 8.96875 15.9141C8.67188 16.2891 8.3125 16.6328 7.89062 16.9453C7.48438 17.2422 7.04688 17.5156 6.57812 17.7656C6.125 18 5.6875 18.2422 5.26562 18.4922C5 18.6484 4.75 18.6797 4.51562 18.5859C4.29688 18.4922 4.125 18.3438 4 18.1406C3.89062 17.9375 3.84375 17.7188 3.85938 17.4844C3.89062 17.2344 4.03906 17.0312 4.30469 16.875C4.67969 16.6562 5.05469 16.4531 5.42969 16.2656C5.80469 16.0781 6.17188 15.8672 6.53125 15.6328C6.875 15.4141 7.17188 15.1562 7.42188 14.8594C7.6875 14.5469 7.82031 14.1875 7.82031 13.7812C7.80469 13.375 7.67188 12.9844 7.42188 12.6094C7.1875 12.2344 6.91406 11.8906 6.60156 11.5781ZM12.625 8.90625C12.9219 8.5 13.2734 8.14062 13.6797 7.82812C14.1016 7.51562 14.5469 7.27344 15.0156 7.10156C15.4844 6.91406 15.9688 6.82031 16.4688 6.82031C16.9688 6.80469 17.4688 6.89844 17.9688 7.10156C18.4531 7.28906 18.8906 7.54688 19.2812 7.875C19.6719 8.1875 19.9766 8.59375 20.1953 9.09375C20.3672 9.46875 20.4688 9.875 20.5 10.3125C20.5312 10.75 20.4141 11.1484 20.1484 11.5078C19.9141 11.8359 19.625 12.0859 19.2812 12.2578C18.9531 12.4297 18.5938 12.5547 18.2031 12.6328C17.8281 12.7109 17.4375 12.75 17.0312 12.75C16.6406 12.75 16.2656 12.7422 15.9062 12.7266C15.5 12.7109 15.0938 12.6797 14.6875 12.6328C14.2969 12.5859 13.8984 12.5391 13.4922 12.4922C13.6172 13.1953 13.8672 13.8203 14.2422 14.3672C14.6172 14.9141 15.125 15.3281 15.7656 15.6094C15.9375 15.6719 16.0703 15.7188 16.1641 15.75C16.2109 15.7656 16.25 15.7812 16.2812 15.7969C16.3281 15.7969 16.375 15.7969 16.4219 15.7969C16.5469 15.8125 16.6484 15.8281 16.7266 15.8438C16.8203 15.8438 16.9062 15.8359 16.9844 15.8203C17.0938 15.8047 17.1641 15.7969 17.1953 15.7969C17.2422 15.7812 17.2891 15.7656 17.3359 15.75C17.5078 15.7031 17.6562 15.6484 17.7812 15.5859C17.9219 15.5234 18.0859 15.4219 18.2734 15.2812C18.3672 15.2031 18.4922 15.0859 18.6484 14.9297C18.8047 14.7734 18.9375 14.6328 19.0469 14.5078C19.2031 14.2891 19.3906 14.1406 19.6094 14.0625C19.8438 13.9844 20.0781 14.0156 20.3125 14.1562C20.5156 14.2812 20.6562 14.4766 20.7344 14.7422C20.8281 14.9922 20.7969 15.2266 20.6406 15.4453C20.1875 16.0547 19.6484 16.5781 19.0234 17.0156C18.4141 17.4375 17.7109 17.6641 16.9141 17.6953C16.2734 17.7266 15.6562 17.6172 15.0625 17.3672C14.4688 17.1016 13.9453 16.75 13.4922 16.3125C12.9297 15.7656 12.4844 15.1328 12.1562 14.4141C11.8281 13.6953 11.6484 12.9609 11.6172 12.2109C11.4766 12.1016 11.3672 11.9688 11.2891 11.8125C11.2266 11.6406 11.2031 11.4688 11.2188 11.2969C11.25 11.125 11.3125 10.9688 11.4062 10.8281C11.5 10.6719 11.6406 10.5703 11.8281 10.5234C12 9.94531 12.2656 9.40625 12.625 8.90625ZM18.25 9.46875C18.0781 9.25 17.8125 9.05469 17.4531 8.88281C17.1562 8.75781 16.8047 8.69531 16.3984 8.69531C16.0078 8.69531 15.6719 8.76562 15.3906 8.90625C15.0312 9.07812 14.7109 9.32031 14.4297 9.63281C14.1484 9.92969 13.9219 10.2656 13.75 10.6406C14.125 10.6875 14.5 10.7344 14.875 10.7812C15.25 10.8281 15.625 10.8594 16 10.875C16.2031 10.875 16.4062 10.875 16.6094 10.875C16.8125 10.875 17.0156 10.8672 17.2188 10.8516C17.2812 10.8516 17.3359 10.8516 17.3828 10.8516C17.4453 10.8359 17.5078 10.8281 17.5703 10.8281C17.7109 10.7969 17.8125 10.7812 17.875 10.7812C17.9531 10.7656 18.0312 10.7422 18.1094 10.7109C18.1719 10.6953 18.25 10.6719 18.3438 10.6406C18.4219 10.6094 18.4688 10.5859 18.4844 10.5703C18.5 10.5547 18.5234 10.5391 18.5547 10.5234L18.625 10.2422C18.5938 10.1797 18.5703 10.125 18.5547 10.0781C18.5547 10.0156 18.5391 9.96094 18.5078 9.91406C18.4922 9.86719 18.4531 9.79688 18.3906 9.70312C18.3438 9.60938 18.2969 9.53125 18.25 9.46875ZM22.7734 8.46094C22.7891 8.16406 22.8984 7.94531 23.1016 7.80469C23.3047 7.64844 23.5234 7.57031 23.7578 7.57031C23.9922 7.57031 24.1953 7.64844 24.3672 7.80469C24.5547 7.94531 24.6406 8.16406 24.625 8.46094C24.625 8.55469 24.6172 8.65625 24.6016 8.76562C24.6016 8.85938 24.6016 8.95312 24.6016 9.04688C25.1016 8.79688 25.625 8.58594 26.1719 8.41406C26.7344 8.22656 27.2891 8.10938 27.8359 8.0625C28.3984 8.01562 28.9375 8.0625 29.4531 8.20312C29.9844 8.32812 30.4688 8.57812 30.9062 8.95312C31.125 9.15625 31.2188 9.375 31.1875 9.60938C31.1719 9.84375 31.0781 10.0469 30.9062 10.2188C30.75 10.375 30.5469 10.4766 30.2969 10.5234C30.0469 10.5547 29.8047 10.4766 29.5703 10.2891C29.3984 10.1484 29.2031 10.0469 28.9844 9.98438C28.7812 9.92188 28.5547 9.89844 28.3047 9.91406C28.0703 9.91406 27.8281 9.9375 27.5781 9.98438C27.3438 10.0312 27.1172 10.0859 26.8984 10.1484C26.0703 10.4141 25.2969 10.7656 24.5781 11.2031C24.6094 11.9688 24.6562 12.7344 24.7188 13.5C24.7812 14.1406 24.8359 14.8047 24.8828 15.4922C24.9297 16.1641 25.0625 16.8047 25.2812 17.4141C25.375 17.6953 25.3516 17.9297 25.2109 18.1172C25.0859 18.3203 24.9062 18.4531 24.6719 18.5156C24.4531 18.5781 24.2188 18.5625 23.9688 18.4688C23.7344 18.375 23.5703 18.1875 23.4766 17.9062C23.3516 17.5469 23.2656 17.1797 23.2188 16.8047C23.1719 16.4297 23.125 16.0547 23.0781 15.6797C23.0469 15.3203 23.0078 14.9609 22.9609 14.6016C22.9297 14.2266 22.8984 13.8594 22.8672 13.5C22.7891 12.6562 22.7344 11.8203 22.7031 10.9922C22.6875 10.1484 22.7109 9.30469 22.7734 8.46094ZM33.8125 14.6016C33.6875 14.1953 33.5703 13.7812 33.4609 13.3594C33.3672 12.9375 33.2578 12.5234 33.1328 12.1172C32.9609 11.4453 32.7031 10.7734 32.3594 10.1016C32.1875 9.75781 32.0156 9.41406 31.8438 9.07031C31.6719 8.71094 31.5469 8.34375 31.4688 7.96875C31.4062 7.67188 31.4531 7.42969 31.6094 7.24219C31.7812 7.03906 31.9766 6.90625 32.1953 6.84375C32.4141 6.78125 32.6328 6.79688 32.8516 6.89062C33.0703 6.98438 33.2109 7.17969 33.2734 7.47656C33.3516 7.85156 33.4766 8.20312 33.6484 8.53125C33.8359 8.85938 34.0156 9.19531 34.1875 9.53906C34.3594 9.89844 34.5078 10.2656 34.6328 10.6406C34.7578 11.0156 34.875 11.3906 34.9844 11.7656C35.1094 12.1719 35.2188 12.5938 35.3125 13.0312C35.4219 13.4531 35.5469 13.8672 35.6875 14.2734C35.7344 14.4297 35.7812 14.5859 35.8281 14.7422C35.8906 14.8828 35.9531 15.0312 36.0156 15.1875C36.1719 14.7344 36.2969 14.3438 36.3906 14.0156C36.4844 13.6719 36.5938 13.3438 36.7188 13.0312C36.8906 12.5625 37.0547 12.1016 37.2109 11.6484C37.3672 11.1797 37.5078 10.7031 37.6328 10.2188C37.7578 9.76562 37.8516 9.3125 37.9141 8.85938C37.9766 8.39062 38.0703 7.92969 38.1953 7.47656C38.2734 7.19531 38.4297 7.00781 38.6641 6.91406C38.8984 6.82031 39.125 6.80469 39.3438 6.86719C39.5625 6.92969 39.7422 7.0625 39.8828 7.26562C40.0391 7.45312 40.0781 7.6875 40 7.96875C39.8438 8.48438 39.7344 9.00781 39.6719 9.53906C39.6094 10.0547 39.5 10.5625 39.3438 11.0625C39.2031 11.5625 39.0391 12.0625 38.8516 12.5625C38.6797 13.0469 38.5078 13.5391 38.3359 14.0391C38.2266 14.3828 38.1172 14.7422 38.0078 15.1172C37.8984 15.4766 37.7656 15.8281 37.6094 16.1719C37.4688 16.5156 37.2891 16.8359 37.0703 17.1328C36.8516 17.4297 36.5781 17.6797 36.25 17.8828C35.9531 18.0547 35.6797 18.0703 35.4297 17.9297C35.1797 17.7891 34.9922 17.5859 34.8672 17.3203C34.6797 16.8672 34.4922 16.4141 34.3047 15.9609C34.1328 15.5078 33.9688 15.0547 33.8125 14.6016ZM41.6172 17.7656C41.7422 17.0156 41.8828 16.2812 42.0391 15.5625C42.2109 14.8281 42.3359 14.0859 42.4141 13.3359C42.4766 12.6016 42.4844 11.8828 42.4375 11.1797C42.4062 10.4609 42.4531 9.73438 42.5781 9C42.6094 8.75 42.75 8.5625 43 8.4375C43.2656 8.3125 43.5078 8.28125 43.7266 8.34375C43.9922 8.42188 44.1719 8.57031 44.2656 8.78906C44.375 9.00781 44.4141 9.24219 44.3828 9.49219C44.3203 9.85156 44.2891 10.2188 44.2891 10.5938C44.3047 10.9688 44.3203 11.3438 44.3359 11.7188C44.3359 12.4375 44.2891 13.1562 44.1953 13.875C44.1016 14.625 43.9766 15.3594 43.8203 16.0781C43.6797 16.7969 43.5469 17.5234 43.4219 18.2578C43.375 18.5078 43.2266 18.6953 42.9766 18.8203C42.7266 18.9453 42.4922 18.9766 42.2734 18.9141C42.0078 18.8359 41.8203 18.6875 41.7109 18.4688C41.6016 18.25 41.5703 18.0156 41.6172 17.7656ZM42.7422 6.98438C42.6328 6.95312 42.5234 6.90625 42.4141 6.84375C42.3047 6.76562 42.2266 6.67188 42.1797 6.5625C42.1328 6.4375 42.0938 6.32812 42.0625 6.23438C42.0312 6.14062 42.0156 6.03125 42.0156 5.90625C42.0156 5.76562 42.0391 5.625 42.0859 5.48438C42.1484 5.20312 42.2734 5 42.4609 4.875C42.5234 4.78125 42.6094 4.71094 42.7188 4.66406C42.8906 4.55469 43.0859 4.5 43.3047 4.5C43.5234 4.48438 43.7188 4.53906 43.8906 4.66406C43.9688 4.72656 44.0469 4.79687 44.125 4.875C44.2031 4.9375 44.2656 5.02344 44.3125 5.13281C44.3438 5.21094 44.375 5.29688 44.4062 5.39062C44.4531 5.48438 44.4688 5.57812 44.4531 5.67188C44.4375 5.78125 44.4219 5.88281 44.4062 5.97656C44.3906 6.07031 44.3516 6.15625 44.2891 6.23438C44.2109 6.34375 44.1484 6.42188 44.1016 6.46875C44.0547 6.51562 43.9766 6.57812 43.8672 6.65625C43.8047 6.71875 43.7109 6.76562 43.5859 6.79688C43.2578 6.98438 42.9766 7.04688 42.7422 6.98438ZM53.6875 16.1719C53.75 16.3906 53.7188 16.625 53.5938 16.875C53.4688 17.125 53.2812 17.2734 53.0312 17.3203C52.1875 17.4609 51.3516 17.4531 50.5234 17.2969C49.6953 17.125 48.9297 16.7656 48.2266 16.2188C47.5391 15.6719 47.0469 14.9766 46.75 14.1328C46.4688 13.2734 46.4219 12.4141 46.6094 11.5547C46.7812 10.7891 47.1406 10.125 47.6875 9.5625C48.2344 9 48.8594 8.5625 49.5625 8.25C50.1875 7.95312 50.8438 7.71875 51.5312 7.54688C52.2188 7.375 52.9062 7.32031 53.5938 7.38281C53.8594 7.41406 54.0781 7.51562 54.25 7.6875C54.4375 7.84375 54.5312 8.05469 54.5312 8.32031C54.5312 8.55469 54.4375 8.77344 54.25 8.97656C54.0781 9.17969 53.8594 9.27344 53.5938 9.25781C53.0938 9.21094 52.6016 9.23438 52.1172 9.32812C51.6328 9.42188 51.1641 9.57031 50.7109 9.77344C50.4453 9.89844 50.1797 10.0312 49.9141 10.1719C49.6641 10.3125 49.4453 10.4688 49.2578 10.6406C49.0547 10.8281 48.8828 11.0156 48.7422 11.2031C48.6172 11.3906 48.5234 11.6094 48.4609 11.8594C48.3984 12.1094 48.375 12.375 48.3906 12.6562C48.4062 12.9375 48.4531 13.2188 48.5312 13.5C48.625 13.7656 48.75 14.0156 48.9062 14.25C49.0625 14.4688 49.25 14.6562 49.4688 14.8125C49.9219 15.1406 50.4141 15.3672 50.9453 15.4922C51.4922 15.6016 52.0234 15.6094 52.5391 15.5156C52.7891 15.4688 53.0234 15.5 53.2422 15.6094C53.4609 15.7188 53.6094 15.9062 53.6875 16.1719ZM56.5234 8.90625C56.8203 8.5 57.1719 8.14062 57.5781 7.82812C58 7.51562 58.4453 7.27344 58.9141 7.10156C59.3828 6.91406 59.8672 6.82031 60.3672 6.82031C60.8672 6.80469 61.3672 6.89844 61.8672 7.10156C62.3516 7.28906 62.7891 7.54688 63.1797 7.875C63.5703 8.1875 63.875 8.59375 64.0938 9.09375C64.2656 9.46875 64.3672 9.875 64.3984 10.3125C64.4297 10.75 64.3125 11.1484 64.0469 11.5078C63.8125 11.8359 63.5234 12.0859 63.1797 12.2578C62.8516 12.4297 62.4922 12.5547 62.1016 12.6328C61.7266 12.7109 61.3359 12.75 60.9297 12.75C60.5391 12.75 60.1641 12.7422 59.8047 12.7266C59.3984 12.7109 58.9922 12.6797 58.5859 12.6328C58.1953 12.5859 57.7969 12.5391 57.3906 12.4922C57.5156 13.1953 57.7656 13.8203 58.1406 14.3672C58.5156 14.9141 59.0234 15.3281 59.6641 15.6094C59.8359 15.6719 59.9688 15.7188 60.0625 15.75C60.1094 15.7656 60.1484 15.7812 60.1797 15.7969C60.2266 15.7969 60.2734 15.7969 60.3203 15.7969C60.4453 15.8125 60.5469 15.8281 60.625 15.8438C60.7188 15.8438 60.8047 15.8359 60.8828 15.8203C60.9922 15.8047 61.0625 15.7969 61.0938 15.7969C61.1406 15.7812 61.1875 15.7656 61.2344 15.75C61.4062 15.7031 61.5547 15.6484 61.6797 15.5859C61.8203 15.5234 61.9844 15.4219 62.1719 15.2812C62.2656 15.2031 62.3906 15.0859 62.5469 14.9297C62.7031 14.7734 62.8359 14.6328 62.9453 14.5078C63.1016 14.2891 63.2891 14.1406 63.5078 14.0625C63.7422 13.9844 63.9766 14.0156 64.2109 14.1562C64.4141 14.2812 64.5547 14.4766 64.6328 14.7422C64.7266 14.9922 64.6953 15.2266 64.5391 15.4453C64.0859 16.0547 63.5469 16.5781 62.9219 17.0156C62.3125 17.4375 61.6094 17.6641 60.8125 17.6953C60.1719 17.7266 59.5547 17.6172 58.9609 17.3672C58.3672 17.1016 57.8438 16.75 57.3906 16.3125C56.8281 15.7656 56.3828 15.1328 56.0547 14.4141C55.7266 13.6953 55.5469 12.9609 55.5156 12.2109C55.375 12.1016 55.2656 11.9688 55.1875 11.8125C55.125 11.6406 55.1016 11.4688 55.1172 11.2969C55.1484 11.125 55.2109 10.9688 55.3047 10.8281C55.3984 10.6719 55.5391 10.5703 55.7266 10.5234C55.8984 9.94531 56.1641 9.40625 56.5234 8.90625ZM62.1484 9.46875C61.9766 9.25 61.7109 9.05469 61.3516 8.88281C61.0547 8.75781 60.7031 8.69531 60.2969 8.69531C59.9062 8.69531 59.5703 8.76562 59.2891 8.90625C58.9297 9.07812 58.6094 9.32031 58.3281 9.63281C58.0469 9.92969 57.8203 10.2656 57.6484 10.6406C58.0234 10.6875 58.3984 10.7344 58.7734 10.7812C59.1484 10.8281 59.5234 10.8594 59.8984 10.875C60.1016 10.875 60.3047 10.875 60.5078 10.875C60.7109 10.875 60.9141 10.8672 61.1172 10.8516C61.1797 10.8516 61.2344 10.8516 61.2812 10.8516C61.3438 10.8359 61.4062 10.8281 61.4688 10.8281C61.6094 10.7969 61.7109 10.7812 61.7734 10.7812C61.8516 10.7656 61.9297 10.7422 62.0078 10.7109C62.0703 10.6953 62.1484 10.6719 62.2422 10.6406C62.3203 10.6094 62.3672 10.5859 62.3828 10.5703C62.3984 10.5547 62.4219 10.5391 62.4531 10.5234L62.5234 10.2422C62.4922 10.1797 62.4688 10.125 62.4531 10.0781C62.4531 10.0156 62.4375 9.96094 62.4062 9.91406C62.3906 9.86719 62.3516 9.79688 62.2891 9.70312C62.2422 9.60938 62.1953 9.53125 62.1484 9.46875ZM67.2344 12.7969C66.8281 12.5 66.5391 12.1328 66.3672 11.6953C66.1953 11.2422 66.1875 10.7656 66.3438 10.2656C66.5 9.8125 66.7422 9.40625 67.0703 9.04688C67.3984 8.6875 67.7734 8.39844 68.1953 8.17969C68.6641 7.92969 69.1641 7.73438 69.6953 7.59375C70.2266 7.45312 70.7656 7.375 71.3125 7.35938C71.8594 7.34375 72.3984 7.39844 72.9297 7.52344C73.4766 7.63281 73.9922 7.8125 74.4766 8.0625C74.7422 8.20312 74.8906 8.39062 74.9219 8.625C74.9531 8.85938 74.9062 9.07812 74.7812 9.28125C74.6719 9.48438 74.5 9.63281 74.2656 9.72656C74.0312 9.82031 73.7812 9.79688 73.5156 9.65625C73.1406 9.45312 72.7188 9.32031 72.25 9.25781C71.7812 9.19531 71.3047 9.19531 70.8203 9.25781C70.3516 9.30469 69.9062 9.42188 69.4844 9.60938C69.0625 9.79688 68.7109 10.0391 68.4297 10.3359C68.3516 10.4141 68.2969 10.4688 68.2656 10.5C68.25 10.5312 68.2188 10.6016 68.1719 10.7109L68.125 10.9688C68.1719 11.1094 68.2109 11.1953 68.2422 11.2266C68.5547 11.4297 68.875 11.5625 69.2031 11.625C69.5469 11.6719 69.8906 11.7031 70.2344 11.7188C70.7188 11.75 71.2109 11.7812 71.7109 11.8125C72.2266 11.8281 72.7188 11.8906 73.1875 12C73.6719 12.1094 74.1172 12.2891 74.5234 12.5391C74.9297 12.7891 75.2734 13.1562 75.5547 13.6406C75.8672 14.1875 76.0078 14.7578 75.9766 15.3516C75.9609 15.9297 75.7344 16.4531 75.2969 16.9219C74.8594 17.3906 74.3516 17.7188 73.7734 17.9062C73.1953 18.0781 72.6094 18.2031 72.0156 18.2812C71.4844 18.3438 70.9297 18.3594 70.3516 18.3281C69.7891 18.2969 69.2422 18.2031 68.7109 18.0469C68.1953 17.9062 67.7109 17.6875 67.2578 17.3906C66.8047 17.0781 66.4297 16.6719 66.1328 16.1719C65.9922 15.9219 65.9688 15.6875 66.0625 15.4688C66.1562 15.2344 66.2969 15.0625 66.4844 14.9531C66.6875 14.8281 66.9062 14.7812 67.1406 14.8125C67.3906 14.8438 67.5938 14.9844 67.75 15.2344C67.9688 15.5938 68.2734 15.8672 68.6641 16.0547C69.0547 16.2422 69.4766 16.375 69.9297 16.4531C70.3984 16.5156 70.8672 16.5312 71.3359 16.5C71.8047 16.4531 72.2266 16.3906 72.6016 16.3125C72.8047 16.2656 73.0078 16.2031 73.2109 16.125C73.4297 16.0312 73.6094 15.9219 73.75 15.7969C73.9062 15.6719 74.0156 15.5312 74.0781 15.375C74.1406 15.2031 74.1328 15.0156 74.0547 14.8125C73.8984 14.4219 73.6328 14.1406 73.2578 13.9688C72.8984 13.7969 72.5156 13.6953 72.1094 13.6641C71.7031 13.6328 71.2891 13.6172 70.8672 13.6172C70.4453 13.6172 70.0234 13.6016 69.6016 13.5703C69.1797 13.5234 68.7656 13.4453 68.3594 13.3359C67.9531 13.2266 67.5781 13.0469 67.2344 12.7969Z" fill="#265A6A"/>
<path d="M1 20.3906H76.7031V21.5859H1V20.3906Z" fill="#265A6A"/>
</svg>
