<svg width="1330" height="483" viewBox="0 0 1330 483" fill="none" xmlns="http://www.w3.org/2000/svg">
<g filter="url(#filter0_d_13_10)">
<rect x="80" y="7" width="1170" height="323" rx="30" fill="white"/>
</g>
<path d="M313.631 206.477C321.097 206.477 326.534 202.199 326.517 196.301C326.534 191.938 323.807 188.801 318.915 188.102V187.83C322.699 187.011 325.239 184.199 325.222 180.278C325.239 174.96 320.705 170.614 313.733 170.614C306.949 170.614 301.699 174.653 301.562 180.5H307.648C307.75 177.568 310.477 175.744 313.699 175.744C316.955 175.744 319.119 177.722 319.102 180.653C319.119 183.705 316.597 185.733 312.983 185.733H309.898V190.608H312.983C317.398 190.608 320.023 192.824 320.006 195.977C320.023 199.062 317.347 201.176 313.614 201.176C310.102 201.176 307.392 199.352 307.239 196.506H300.83C301 202.403 306.267 206.477 313.631 206.477ZM345.271 206.665C353.692 206.682 358.72 200.034 358.72 188.58C358.72 177.193 353.658 170.614 345.271 170.614C336.885 170.614 331.839 177.176 331.822 188.58C331.822 200.017 336.851 206.665 345.271 206.665ZM345.271 201.33C340.925 201.33 338.197 196.966 338.214 188.58C338.232 180.261 340.942 175.881 345.271 175.881C349.618 175.881 352.328 180.261 352.345 188.58C352.345 196.966 349.635 201.33 345.271 201.33ZM377.287 206.665C385.707 206.682 390.736 200.034 390.736 188.58C390.736 177.193 385.673 170.614 377.287 170.614C368.901 170.614 363.855 177.176 363.838 188.58C363.838 200.017 368.866 206.665 377.287 206.665ZM377.287 201.33C372.94 201.33 370.213 196.966 370.23 188.58C370.247 180.261 372.957 175.881 377.287 175.881C381.634 175.881 384.344 180.261 384.361 188.58C384.361 196.966 381.651 201.33 377.287 201.33ZM406.763 200.409H412.115V191.29H421.234V185.938H412.115V176.818H406.763V185.938H397.643V191.29H406.763V200.409Z" fill="#08546C"/>
<path d="M299.585 247H301.17V242.219H304.034C307.083 242.219 308.457 240.365 308.457 238.051C308.457 235.737 307.083 233.909 304.009 233.909H299.585V247ZM301.17 240.812V235.315H303.957C306.086 235.315 306.898 236.479 306.898 238.051C306.898 239.624 306.086 240.812 303.983 240.812H301.17ZM310.806 247H312.315V240.787C312.315 239.457 313.363 238.486 314.795 238.486C315.198 238.486 315.613 238.562 315.716 238.588V237.054C315.543 237.041 315.147 237.028 314.923 237.028C313.747 237.028 312.724 237.693 312.366 238.665H312.264V237.182H310.806V247ZM321.194 247.205C323.853 247.205 325.642 245.185 325.642 242.142C325.642 239.074 323.853 237.054 321.194 237.054C318.534 237.054 316.745 239.074 316.745 242.142C316.745 245.185 318.534 247.205 321.194 247.205ZM321.194 245.849C319.174 245.849 318.253 244.111 318.253 242.142C318.253 240.173 319.174 238.409 321.194 238.409C323.213 238.409 324.134 240.173 324.134 242.142C324.134 244.111 323.213 245.849 321.194 245.849ZM327.945 237.182V247.716C327.945 248.713 327.536 249.276 326.616 249.276H326.334V250.682H326.641C328.533 250.682 329.454 249.531 329.454 247.716V237.182H327.945ZM328.687 235.545C329.275 235.545 329.76 235.085 329.76 234.523C329.76 233.96 329.275 233.5 328.687 233.5C328.099 233.5 327.613 233.96 327.613 234.523C327.613 235.085 328.099 235.545 328.687 235.545ZM336.333 247.205C338.327 247.205 339.785 246.207 340.245 244.724L338.788 244.315C338.404 245.338 337.516 245.849 336.333 245.849C334.562 245.849 333.342 244.705 333.271 242.602H340.398V241.963C340.398 238.307 338.225 237.054 336.18 237.054C333.521 237.054 331.756 239.151 331.756 242.168C331.756 245.185 333.495 247.205 336.333 247.205ZM333.271 241.298C333.374 239.771 334.454 238.409 336.18 238.409C337.816 238.409 338.864 239.636 338.864 241.298H333.271ZM346.682 247.205C348.855 247.205 350.287 245.875 350.543 244.136H349.034C348.753 245.21 347.858 245.849 346.682 245.849C344.892 245.849 343.741 244.366 343.741 242.091C343.741 239.866 344.918 238.409 346.682 238.409C348.011 238.409 348.804 239.227 349.034 240.122H350.543C350.287 238.281 348.727 237.054 346.656 237.054C343.997 237.054 342.233 239.151 342.233 242.142C342.233 245.082 343.92 247.205 346.682 247.205ZM357.018 237.182H354.921V234.83H353.413V237.182H351.93V238.46H353.413V244.597C353.413 246.31 354.793 247.128 356.072 247.128C356.634 247.128 356.992 247.026 357.197 246.949L356.89 245.594C356.762 245.619 356.558 245.67 356.225 245.67C355.56 245.67 354.921 245.466 354.921 244.188V238.46H357.018V237.182ZM368.594 247C372.582 247 374.832 244.52 374.832 240.429C374.832 236.364 372.582 233.909 368.773 233.909H364.554V247H368.594ZM366.139 245.594V235.315H368.67C371.739 235.315 373.298 237.259 373.298 240.429C373.298 243.625 371.739 245.594 368.491 245.594H366.139ZM381.403 247.205C383.398 247.205 384.855 246.207 385.315 244.724L383.858 244.315C383.474 245.338 382.586 245.849 381.403 245.849C379.633 245.849 378.412 244.705 378.342 242.602H385.469V241.963C385.469 238.307 383.295 237.054 381.25 237.054C378.591 237.054 376.827 239.151 376.827 242.168C376.827 245.185 378.565 247.205 381.403 247.205ZM378.342 241.298C378.444 239.771 379.524 238.409 381.25 238.409C382.886 238.409 383.935 239.636 383.935 241.298H378.342ZM389.272 233.909H387.763V247H389.272V233.909ZM392.035 247H393.544V237.182H392.035V247ZM392.802 235.545C393.39 235.545 393.876 235.085 393.876 234.523C393.876 233.96 393.39 233.5 392.802 233.5C392.214 233.5 391.728 233.96 391.728 234.523C391.728 235.085 392.214 235.545 392.802 235.545ZM404.335 237.182H402.699L399.988 245.006H399.886L397.176 237.182H395.539L399.17 247H400.704L404.335 237.182ZM410.091 247.205C412.085 247.205 413.543 246.207 414.003 244.724L412.545 244.315C412.162 245.338 411.273 245.849 410.091 245.849C408.32 245.849 407.099 244.705 407.029 242.602H414.156V241.963C414.156 238.307 411.983 237.054 409.938 237.054C407.278 237.054 405.514 239.151 405.514 242.168C405.514 245.185 407.253 247.205 410.091 247.205ZM407.029 241.298C407.131 239.771 408.212 238.409 409.938 238.409C411.574 238.409 412.622 239.636 412.622 241.298H407.029ZM416.451 247H417.96V240.787C417.96 239.457 419.008 238.486 420.44 238.486C420.842 238.486 421.258 238.562 421.36 238.588V237.054C421.188 237.041 420.791 237.028 420.567 237.028C419.391 237.028 418.369 237.693 418.011 238.665H417.908V237.182H416.451V247ZM424.419 250.682C425.78 250.682 426.739 249.96 427.308 248.432L431.488 237.207L429.839 237.182L427.129 245.006H427.027L424.316 237.182H422.68L426.311 247.051L426.029 247.818C425.48 249.314 424.802 249.455 423.703 249.173L423.319 250.503C423.473 250.58 423.907 250.682 424.419 250.682Z" fill="#08546C"/>
<path d="M917.381 206H923.943L938.773 176.494V171.091H914.994V176.375H932.227V176.614L917.381 206ZM956.428 206.665C964.848 206.682 969.876 200.034 969.876 188.58C969.876 177.193 964.814 170.614 956.428 170.614C948.041 170.614 942.996 177.176 942.979 188.58C942.979 200.017 948.007 206.665 956.428 206.665ZM956.428 201.33C952.081 201.33 949.354 196.966 949.371 188.58C949.388 180.261 952.098 175.881 956.428 175.881C960.774 175.881 963.484 180.261 963.501 188.58C963.501 196.966 960.791 201.33 956.428 201.33ZM985.903 200.409H991.256V191.29H1000.38V185.938H991.256V176.818H985.903V185.938H976.784V191.29H985.903V200.409Z" fill="#08546C"/>
<path d="M914.585 247H916.17V241.145H923.151V247H924.736V233.909H923.151V239.739H916.17V233.909H914.585V247ZM930.594 247.23C932.307 247.23 933.202 246.31 933.509 245.67H933.586V247H935.094V240.531C935.094 237.412 932.716 237.054 931.463 237.054C929.98 237.054 928.293 237.565 927.526 239.355L928.958 239.866C929.29 239.151 930.076 238.384 931.515 238.384C932.902 238.384 933.586 239.119 933.586 240.378V240.429C933.586 241.158 932.844 241.094 931.054 241.324C929.233 241.56 927.245 241.963 927.245 244.213C927.245 246.131 928.728 247.23 930.594 247.23ZM930.824 245.875C929.623 245.875 928.753 245.338 928.753 244.29C928.753 243.139 929.801 242.781 930.978 242.628C931.617 242.551 933.33 242.372 933.586 242.065V243.446C933.586 244.673 932.614 245.875 930.824 245.875ZM937.847 250.682H939.356V245.491H939.484C939.816 246.028 940.455 247.205 942.347 247.205C944.802 247.205 946.515 245.236 946.515 242.116C946.515 239.023 944.802 237.054 942.322 237.054C940.404 237.054 939.816 238.23 939.484 238.741H939.305V237.182H937.847V250.682ZM939.33 242.091C939.33 239.892 940.302 238.409 942.143 238.409C944.061 238.409 945.007 240.02 945.007 242.091C945.007 244.188 944.035 245.849 942.143 245.849C940.328 245.849 939.33 244.315 939.33 242.091ZM948.816 250.682H950.325V245.491H950.453C950.785 246.028 951.424 247.205 953.316 247.205C955.771 247.205 957.484 245.236 957.484 242.116C957.484 239.023 955.771 237.054 953.291 237.054C951.373 237.054 950.785 238.23 950.453 238.741H950.274V237.182H948.816V250.682ZM950.299 242.091C950.299 239.892 951.271 238.409 953.112 238.409C955.029 238.409 955.975 240.02 955.975 242.091C955.975 244.188 955.004 245.849 953.112 245.849C951.296 245.849 950.299 244.315 950.299 242.091ZM960.405 250.682C961.767 250.682 962.725 249.96 963.294 248.432L967.475 237.207L965.825 237.182L963.115 245.006H963.013L960.303 237.182H958.666L962.297 247.051L962.016 247.818C961.466 249.314 960.789 249.455 959.689 249.173L959.306 250.503C959.459 250.58 959.894 250.682 960.405 250.682ZM985.272 238C984.786 235.315 982.638 233.73 980.005 233.73C976.655 233.73 974.226 236.312 974.226 240.455C974.226 244.597 976.655 247.179 980.005 247.179C982.638 247.179 984.786 245.594 985.272 242.909H983.686C983.303 244.724 981.743 245.696 980.005 245.696C977.627 245.696 975.76 243.855 975.76 240.455C975.76 237.054 977.627 235.213 980.005 235.213C981.743 235.213 983.303 236.185 983.686 238H985.272ZM989.137 233.909H987.629V247H989.137V233.909ZM991.9 247H993.409V237.182H991.9V247ZM992.667 235.545C993.255 235.545 993.741 235.085 993.741 234.523C993.741 233.96 993.255 233.5 992.667 233.5C992.079 233.5 991.593 233.96 991.593 234.523C991.593 235.085 992.079 235.545 992.667 235.545ZM1000.29 247.205C1002.28 247.205 1003.74 246.207 1004.2 244.724L1002.74 244.315C1002.36 245.338 1001.47 245.849 1000.29 245.849C998.518 245.849 997.297 244.705 997.226 242.602H1004.35V241.963C1004.35 238.307 1002.18 237.054 1000.13 237.054C997.476 237.054 995.711 239.151 995.711 242.168C995.711 245.185 997.45 247.205 1000.29 247.205ZM997.226 241.298C997.329 239.771 998.409 238.409 1000.13 238.409C1001.77 238.409 1002.82 239.636 1002.82 241.298H997.226ZM1008.16 241.094C1008.16 239.381 1009.22 238.409 1010.66 238.409C1012.06 238.409 1012.91 239.323 1012.91 240.864V247H1014.42V240.761C1014.42 238.256 1013.09 237.054 1011.1 237.054C1009.61 237.054 1008.69 237.719 1008.23 238.716H1008.11V237.182H1006.65V247H1008.16V241.094ZM1021.45 237.182H1019.35V234.83H1017.84V237.182H1016.36V238.46H1017.84V244.597C1017.84 246.31 1019.22 247.128 1020.5 247.128C1021.06 247.128 1021.42 247.026 1021.63 246.949L1021.32 245.594C1021.19 245.619 1020.99 245.67 1020.65 245.67C1019.99 245.67 1019.35 245.466 1019.35 244.188V238.46H1021.45V237.182ZM1030.5 239.381C1030.02 237.987 1028.96 237.054 1027.02 237.054C1024.95 237.054 1023.41 238.23 1023.41 239.892C1023.41 241.247 1024.22 242.155 1026.02 242.577L1027.66 242.96C1028.65 243.19 1029.11 243.663 1029.11 244.341C1029.11 245.185 1028.22 245.875 1026.81 245.875C1025.58 245.875 1024.81 245.344 1024.54 244.29L1023.11 244.648C1023.46 246.316 1024.83 247.205 1026.84 247.205C1029.12 247.205 1030.67 245.958 1030.67 244.264C1030.67 242.896 1029.82 242.033 1028.07 241.605L1026.61 241.247C1025.45 240.96 1024.92 240.57 1024.92 239.815C1024.92 238.972 1025.82 238.358 1027.02 238.358C1028.33 238.358 1028.88 239.087 1029.14 239.764L1030.5 239.381Z" fill="#08546C"/>
<path d="M596.511 206.477C604.062 206.477 609.466 202.318 609.483 196.642C609.466 192.278 606.244 188.631 602.188 187.949V187.71C605.716 186.926 608.17 183.756 608.188 179.972C608.17 174.602 603.227 170.614 596.511 170.614C589.744 170.614 584.801 174.585 584.818 179.972C584.801 183.756 587.222 186.926 590.818 187.71V187.949C586.693 188.631 583.506 192.278 583.523 196.642C583.506 202.318 588.892 206.477 596.511 206.477ZM596.511 201.602C592.557 201.602 590 199.42 590.034 196.199C590 192.858 592.744 190.489 596.511 190.489C600.227 190.489 602.955 192.875 602.989 196.199C602.955 199.42 600.415 201.602 596.511 201.602ZM596.511 185.699C593.273 185.699 590.955 183.602 590.989 180.568C590.955 177.568 593.205 175.557 596.511 175.557C599.767 175.557 602 177.568 602.034 180.568C602 183.619 599.699 185.699 596.511 185.699Z" fill="#08546C"/>
<path d="M523.46 233.909L528.19 241.605V247H529.776V241.605L534.506 233.909H532.69L529.06 240.02H528.906L525.276 233.909H523.46ZM539.079 247.205C541.074 247.205 542.531 246.207 542.991 244.724L541.534 244.315C541.15 245.338 540.262 245.849 539.079 245.849C537.309 245.849 536.088 244.705 536.017 242.602H543.145V241.963C543.145 238.307 540.971 237.054 538.926 237.054C536.267 237.054 534.502 239.151 534.502 242.168C534.502 245.185 536.241 247.205 539.079 247.205ZM536.017 241.298C536.12 239.771 537.2 238.409 538.926 238.409C540.562 238.409 541.61 239.636 541.61 241.298H536.017ZM548.328 247.23C550.042 247.23 550.936 246.31 551.243 245.67H551.32V247H552.828V240.531C552.828 237.412 550.451 237.054 549.198 237.054C547.715 237.054 546.027 237.565 545.26 239.355L546.692 239.866C547.025 239.151 547.811 238.384 549.249 238.384C550.636 238.384 551.32 239.119 551.32 240.378V240.429C551.32 241.158 550.578 241.094 548.789 241.324C546.967 241.56 544.979 241.963 544.979 244.213C544.979 246.131 546.462 247.23 548.328 247.23ZM548.559 245.875C547.357 245.875 546.488 245.338 546.488 244.29C546.488 243.139 547.536 242.781 548.712 242.628C549.351 242.551 551.064 242.372 551.32 242.065V243.446C551.32 244.673 550.348 245.875 548.559 245.875ZM555.582 247H557.09V240.787C557.09 239.457 558.139 238.486 559.57 238.486C559.973 238.486 560.389 238.562 560.491 238.588V237.054C560.318 237.041 559.922 237.028 559.698 237.028C558.522 237.028 557.499 237.693 557.142 238.665H557.039V237.182H555.582V247ZM569.234 239.381C568.761 237.987 567.7 237.054 565.756 237.054C563.685 237.054 562.151 238.23 562.151 239.892C562.151 241.247 562.957 242.155 564.759 242.577L566.396 242.96C567.386 243.19 567.853 243.663 567.853 244.341C567.853 245.185 566.958 245.875 565.552 245.875C564.318 245.875 563.545 245.344 563.276 244.29L561.844 244.648C562.196 246.316 563.57 247.205 565.577 247.205C567.859 247.205 569.413 245.958 569.413 244.264C569.413 242.896 568.556 242.033 566.805 241.605L565.347 241.247C564.184 240.96 563.66 240.57 563.66 239.815C563.66 238.972 564.555 238.358 565.756 238.358C567.073 238.358 567.616 239.087 567.879 239.764L569.234 239.381ZM576.95 247H584.953V245.594H578.536V241.145H584.442V239.739H578.536V235.315H584.851V233.909H576.95V247ZM588.629 237.182H586.89L590.009 242.091L586.89 247H588.629L590.981 243.19L593.333 247H595.072L591.901 242.091L595.072 237.182H593.333L590.981 241.196L588.629 237.182ZM597.224 250.682H598.733V245.491H598.861C599.193 246.028 599.832 247.205 601.724 247.205C604.179 247.205 605.892 245.236 605.892 242.116C605.892 239.023 604.179 237.054 601.699 237.054C599.781 237.054 599.193 238.23 598.861 238.741H598.682V237.182H597.224V250.682ZM598.707 242.091C598.707 239.892 599.679 238.409 601.52 238.409C603.438 238.409 604.384 240.02 604.384 242.091C604.384 244.188 603.412 245.849 601.52 245.849C599.705 245.849 598.707 244.315 598.707 242.091ZM612.31 247.205C614.304 247.205 615.761 246.207 616.222 244.724L614.764 244.315C614.381 245.338 613.492 245.849 612.31 245.849C610.539 245.849 609.318 244.705 609.248 242.602H616.375V241.963C616.375 238.307 614.202 237.054 612.156 237.054C609.497 237.054 607.733 239.151 607.733 242.168C607.733 245.185 609.472 247.205 612.31 247.205ZM609.248 241.298C609.35 239.771 610.43 238.409 612.156 238.409C613.793 238.409 614.841 239.636 614.841 241.298H609.248ZM618.67 247H620.178V240.787C620.178 239.457 621.227 238.486 622.658 238.486C623.061 238.486 623.477 238.562 623.579 238.588V237.054C623.406 237.041 623.01 237.028 622.786 237.028C621.61 237.028 620.587 237.693 620.229 238.665H620.127V237.182H618.67V247ZM625.367 247H626.876V237.182H625.367V247ZM626.134 235.545C626.722 235.545 627.208 235.085 627.208 234.523C627.208 233.96 626.722 233.5 626.134 233.5C625.546 233.5 625.06 233.96 625.06 234.523C625.06 235.085 625.546 235.545 626.134 235.545ZM633.755 247.205C635.749 247.205 637.207 246.207 637.667 244.724L636.21 244.315C635.826 245.338 634.938 245.849 633.755 245.849C631.984 245.849 630.763 244.705 630.693 242.602H637.82V241.963C637.82 238.307 635.647 237.054 633.602 237.054C630.942 237.054 629.178 239.151 629.178 242.168C629.178 245.185 630.917 247.205 633.755 247.205ZM630.693 241.298C630.795 239.771 631.876 238.409 633.602 238.409C635.238 238.409 636.286 239.636 636.286 241.298H630.693ZM641.624 241.094C641.624 239.381 642.685 238.409 644.129 238.409C645.529 238.409 646.379 239.323 646.379 240.864V247H647.888V240.761C647.888 238.256 646.552 237.054 644.564 237.054C643.081 237.054 642.161 237.719 641.7 238.716H641.572V237.182H640.115V247H641.624V241.094ZM654.633 247.205C656.806 247.205 658.238 245.875 658.494 244.136H656.985C656.704 245.21 655.809 245.849 654.633 245.849C652.843 245.849 651.693 244.366 651.693 242.091C651.693 239.866 652.869 238.409 654.633 238.409C655.963 238.409 656.755 239.227 656.985 240.122H658.494C658.238 238.281 656.678 237.054 654.607 237.054C651.948 237.054 650.184 239.151 650.184 242.142C650.184 245.082 651.872 247.205 654.633 247.205ZM664.816 247.205C666.81 247.205 668.267 246.207 668.727 244.724L667.27 244.315C666.887 245.338 665.998 245.849 664.816 245.849C663.045 245.849 661.824 244.705 661.754 242.602H668.881V241.963C668.881 238.307 666.708 237.054 664.662 237.054C662.003 237.054 660.239 239.151 660.239 242.168C660.239 245.185 661.977 247.205 664.816 247.205ZM661.754 241.298C661.856 239.771 662.936 238.409 664.662 238.409C666.298 238.409 667.347 239.636 667.347 241.298H661.754Z" fill="#08546C"/>
<path d="M781.301 171.091H775.284L766.608 176.665V182.46L774.773 177.244H774.977V206H781.301V171.091ZM802.949 206.477C810.483 206.528 815.545 201.347 815.528 194.443C815.545 187.847 810.841 183.074 804.722 183.074C800.972 183.074 797.665 184.898 795.994 187.898H795.756C795.773 180.551 798.466 176.085 803.307 176.085C806.307 176.085 808.335 177.824 808.983 180.5H815.205C814.455 174.858 809.903 170.614 803.307 170.614C794.92 170.614 789.619 177.602 789.619 189.534C789.602 202.335 796.25 206.443 802.949 206.477ZM802.915 201.364C799.182 201.364 796.455 198.278 796.438 194.631C796.472 190.966 799.301 187.898 803 187.898C806.699 187.898 809.409 190.83 809.392 194.58C809.409 198.398 806.614 201.364 802.915 201.364Z" fill="#08546C"/>
<path d="M762.122 247L763.439 243.293H768.732L770.048 247H771.71L766.903 233.909H765.267L760.46 247H762.122ZM763.938 241.886L766.034 235.98H766.136L768.233 241.886H763.938ZM774.539 247H776.022L778.169 239.457H778.323L780.471 247H781.953L784.945 237.182H783.36L781.238 244.673H781.135L779.064 237.182H777.453L775.357 244.699H775.255L773.132 237.182H771.547L774.539 247ZM789.828 247.23C791.542 247.23 792.436 246.31 792.743 245.67H792.82V247H794.328V240.531C794.328 237.412 791.951 237.054 790.698 237.054C789.215 237.054 787.527 237.565 786.76 239.355L788.192 239.866C788.525 239.151 789.311 238.384 790.749 238.384C792.136 238.384 792.82 239.119 792.82 240.378V240.429C792.82 241.158 792.078 241.094 790.289 241.324C788.467 241.56 786.479 241.963 786.479 244.213C786.479 246.131 787.962 247.23 789.828 247.23ZM790.059 245.875C788.857 245.875 787.988 245.338 787.988 244.29C787.988 243.139 789.036 242.781 790.212 242.628C790.851 242.551 792.564 242.372 792.82 242.065V243.446C792.82 244.673 791.848 245.875 790.059 245.875ZM797.082 247H798.59V240.787C798.59 239.457 799.639 238.486 801.07 238.486C801.473 238.486 801.889 238.562 801.991 238.588V237.054C801.818 237.041 801.422 237.028 801.198 237.028C800.022 237.028 798.999 237.693 798.642 238.665H798.539V237.182H797.082V247ZM807.188 247.205C809.08 247.205 809.719 246.028 810.051 245.491H810.23V247H811.688V233.909H810.179V238.741H810.051C809.719 238.23 809.131 237.054 807.213 237.054C804.733 237.054 803.02 239.023 803.02 242.116C803.02 245.236 804.733 247.205 807.188 247.205ZM807.392 245.849C805.5 245.849 804.529 244.188 804.529 242.091C804.529 240.02 805.475 238.409 807.392 238.409C809.233 238.409 810.205 239.892 810.205 242.091C810.205 244.315 809.208 245.849 807.392 245.849ZM821.615 239.381C821.142 237.987 820.08 237.054 818.137 237.054C816.066 237.054 814.532 238.23 814.532 239.892C814.532 241.247 815.338 242.155 817.14 242.577L818.776 242.96C819.767 243.19 820.234 243.663 820.234 244.341C820.234 245.185 819.339 245.875 817.933 245.875C816.699 245.875 815.926 245.344 815.657 244.29L814.225 244.648C814.577 246.316 815.951 247.205 817.958 247.205C820.24 247.205 821.794 245.958 821.794 244.264C821.794 242.896 820.937 242.033 819.186 241.605L817.728 241.247C816.565 240.96 816.041 240.57 816.041 239.815C816.041 238.972 816.936 238.358 818.137 238.358C819.454 238.358 819.997 239.087 820.259 239.764L821.615 239.381Z" fill="#08546C"/>
<path d="M309.207 92.3438H312.25C312.19 89.3949 309.676 87.3068 305.96 87.3068C302.295 87.3068 299.543 89.3693 299.551 92.4545C299.551 94.9602 301.332 96.4006 304.205 97.142L306.19 97.6534C308.074 98.1307 309.318 98.7188 309.327 100.074C309.318 101.565 307.903 102.562 305.841 102.562C303.864 102.562 302.33 101.676 302.202 99.8438H299.091C299.219 103.312 301.801 105.264 305.866 105.264C310.051 105.264 312.48 103.176 312.489 100.099C312.48 97.0739 309.983 95.6932 307.358 95.071L305.722 94.6619C304.29 94.321 302.739 93.7159 302.756 92.2585C302.764 90.946 303.94 89.983 305.918 89.983C307.801 89.983 309.045 90.8608 309.207 92.3438ZM314.54 90.196H319.935V105H323.072V90.196H328.467V87.5455H314.54V90.196ZM331.283 105L332.724 100.696H339.286L340.735 105H344.11L337.957 87.5455H334.053L327.908 105H331.283ZM333.576 98.1562L335.937 91.125H336.073L338.434 98.1562H333.576ZM343.533 90.196H348.928V105H352.064V90.196H357.459V87.5455H343.533V90.196ZM363.305 87.5455H360.143V105H363.305V87.5455ZM376.215 92.3438H379.258C379.198 89.3949 376.684 87.3068 372.968 87.3068C369.303 87.3068 366.55 89.3693 366.559 92.4545C366.559 94.9602 368.34 96.4006 371.212 97.142L373.198 97.6534C375.082 98.1307 376.326 98.7188 376.335 100.074C376.326 101.565 374.911 102.562 372.849 102.562C370.871 102.562 369.337 101.676 369.21 99.8438H366.099C366.227 103.312 368.809 105.264 372.874 105.264C377.059 105.264 379.488 103.176 379.496 100.099C379.488 97.0739 376.991 95.6932 374.366 95.071L372.729 94.6619C371.298 94.321 369.746 93.7159 369.763 92.2585C369.772 90.946 370.948 89.983 372.925 89.983C374.809 89.983 376.053 90.8608 376.215 92.3438ZM381.548 90.196H386.943V105H390.08V90.196H395.474V87.5455H381.548V90.196ZM401.321 87.5455H398.159V105H401.321V87.5455ZM419.685 93.4347C419.148 89.5568 416.165 87.3068 412.296 87.3068C407.737 87.3068 404.302 90.6307 404.302 96.2727C404.302 101.906 407.694 105.239 412.296 105.239C416.447 105.239 419.2 102.554 419.685 99.2216L416.498 99.2045C416.097 101.25 414.427 102.401 412.339 102.401C409.509 102.401 407.481 100.278 407.481 96.2727C407.481 92.3352 409.492 90.1449 412.347 90.1449C414.469 90.1449 416.131 91.3466 416.498 93.4347H419.685Z" fill="#265A6A"/>
<defs>
<filter id="filter0_d_13_10" x="0" y="0" width="1330" height="483" filterUnits="userSpaceOnUse" color-interpolation-filters="sRGB">
<feFlood flood-opacity="0" result="BackgroundImageFix"/>
<feColorMatrix in="SourceAlpha" type="matrix" values="0 0 0 0 0 0 0 0 0 0 0 0 0 0 0 0 0 0 127 0" result="hardAlpha"/>
<feOffset dy="73"/>
<feGaussianBlur stdDeviation="40"/>
<feColorMatrix type="matrix" values="0 0 0 0 0 0 0 0 0 0 0 0 0 0 0 0 0 0 0.06 0"/>
<feBlend mode="normal" in2="BackgroundImageFix" result="effect1_dropShadow_13_10"/>
<feBlend mode="normal" in="SourceGraphic" in2="effect1_dropShadow_13_10" result="shape"/>
</filter>
</defs>
</svg>
